<?xml version="1.0" encoding="UTF-8"?>
<svg id="Capa_1" data-name="Capa 1" xmlns="http://www.w3.org/2000/svg" viewBox="0 0 737.01 737.01">
  <defs>
    <style>
      .cls-1 {
        fill: #9cb7a6;
      }

      .cls-2 {
        fill: #416e6b;
      }

      .cls-3 {
        fill: #77b295;
      }

      .cls-4 {
        fill: #95ad9d;
      }

      .cls-5 {
        fill: #a3c1b0;
      }

      .cls-6 {
        fill: #92b0a0;
      }

      .cls-7 {
        fill: #72a589;
      }

      .cls-8 {
        fill: #152529;
      }

      .cls-9 {
        fill: #172726;
      }

      .cls-10 {
        fill: #fff;
      }

      .cls-11 {
        fill: #172626;
      }

      .cls-12 {
        fill: #76ad90;
      }

      .cls-13 {
        fill: #8ea394;
      }

      .cls-14 {
        fill: #7ab99c;
      }

      .cls-15 {
        fill: #1a2428;
      }

      .cls-16 {
        fill: #87998c;
      }

      .cls-17 {
        fill: #172a2b;
      }

      .cls-18 {
        fill: #e0ded4;
      }
    </style>
  </defs>
  <g>
    <path class="cls-10" d="M72.86,158.23c2.8-1.87,5.39-3.87,9.23-2.24,3.36,1.43,6.49-.44,9.67-1.62,2.47-.92,5-3.22,7.94-.99,3.04,3.55,1.6,7.4.6,11.12-4.65,17.35-9.86,34.59-12.08,52.48-1.19,9.54-2.43,19.12-2.43,28.76.01,17.86-1.57,35.8,2.14,53.51,2.1,16.03,5.43,31.85,10.32,47.21,7.45,23.4,15.92,46.46,29.42,67.24,8.24,12.52,14.09,26.61,24.51,37.7,1.47,1.57,2.17,3.52,3.15,5.33,3.1,5.42,8.36,8.98,11.98,13.95,7.72,11.09,16.72,20.94,27.8,28.61.98-7.15,2.54-14.26-2.05-20.74-2.62-2.12-5.76-1.77-8.79-1.93-5.99-.31-11.49-2.05-16.39-5.59-4.24-5.25-10.01-9.21-13.09-15.46-4.59-13.04.98-25.84,15.37-35.42.72-.33,1.5-.51,2.29-.55,8.36,2.69,11.64,8.88,9.78,18.72-.4,2.11-2.36,4.34.93,5.84,3.3,4.39,7.78,4.82,12.62,3.71,2.78-.64,5.49-1.59,8.32-2.01,10.22-1.52,17.03,3.43,17.43,13.83.61,15.86,1.64,31.9-.42,47.59-1.44,10.93,1.07,18.24,10.3,23.58,1.12.65,2.2,1.39,3.11,2.31,8.12,2.1,12.06,10.22,19.36,13.51,11.59,6.39,23.26,12.64,34.79,19.14,21.31,12.3,44.94,19.31,67.15,29.57,3.29,1.52,6.81,2.6,10.56,2.51,20.54,5.67,41.2,10.69,62.24,14.15,12.58,2.07,25.33,2.12,37.92,3.92,5.91.85,8.57-1.93,8.53-8.01-.08-12.24-.67-24.45-1.26-36.68-.84-17.41-1.13-34.92.88-52.34,2.55-9.38.62-18.99,1.44-28.46,5.45-10.43,11.93-11.96,20.76-4.94,2.63,3.99,1.91,8.53,1.93,12.89.09,32.26.03,64.51.05,96.77,0,3.12-.1,6.25.17,9.36,1.1,12.59,4.28,14.81,16.59,11.66,6.62-1.78,13.58-.08,20.19-1.98,21.26-1.3,41.53-7.04,61.49-14.01,13.75-4.8,27.13-10.72,41.52-13.54.79.13,1.5.45,2.14.94,1.11,6.62-1.3,10.55-8.23,12.21-10.68,2.55-20.45,7.56-30.74,10.97-10.18,3.37-19.72,7.68-29.24,12.44-5.9,2.95-12.26.92-19.07-.87,1.55,2.44,3.72,4.91,1.04,7.22-4.27,3.69-8.8,1.01-13.25-.05,1.16,8.07-.33,10.64-8.84,12.47-4.79,1.03-8.83,2.52-11.61,6.7-10.4,4.41-21.41,1.85-32.11,2.75-13.12,1.1-26.26-.24-39.35-1.49-4.91.37-9.65-2.02-14.61-.87-4.08.72-7.71-1.15-11.53-1.97-7.95-.56-15.59-2.59-23.17-4.91-38.23-8.66-75.78-19.56-110.76-37.66-36.22-18.74-70.7-40.33-101.55-67.25-31.58-27.56-60.57-57.63-83.1-93.22-18.23-28.78-33.44-59.13-40.7-92.88-5.66-10.64-6.12-22.52-8.29-34-4.45-23.52-3.24-47.29-3.17-71.01.02-8.39,2.45-16.48,3.58-24.73.35-18.05,6.18-34.82,12.09-51.57,1.39-3.93,3.3-7.66,4.5-11.66Z"/>
    <path class="cls-10" d="M609.8,114.15c7.04.07,10.08,6.32,11.49,10.76,1.93,6.11,4.9,12.42,4.26,19.27,1.9,3.34-.58,5.16-2.83,6.09-16.88,6.98-27.76,21.64-41.58,32.51-7.75,6.09-15.28,12.49-23.12,18.51-25.48,17.61-50.49,35.88-77.47,51.25-12.51,7.13-25.74,12.45-38.85,18.16-11.98,3.22-23.21,8.82-35.34,11.44-6.72,1.46-.54,6.16-2.8,8.52-6.44,6.2-13.58,9.79-22.79,6.66-2.15-.73-4.53-.69-6.81-.12-5.93.84-11.24,3.96-17.17,4.82-7.16-3.87-14.8-7.25-17.06-16.29-.38-1.62-1.42-2.7-2.86-3.47-5.74-3.38-12.4-3.71-18.52-5.79-51.67-17.61-97.5-45.49-138.79-80.83-12.34-10.56-23.97-22.39-32.28-36.79-.96-1.66-2.89-2.22-3.79-3.85-1.92-2.77-3.44-5.77-5.16-8.66-3.23-4.78-5.89-9.86-8.03-15.22-2.39-9.27-6.81-18.14-5.52-28.13,2.84-4.59,6.33-5.71,11.05-2.5,1.42.96,3.39,1.16,5.15,1.56,5.92,1.36,9.1,2.9,11.79,5.84,4.92,1.93,5.25,7.15,7.72,10.84.38.59.68,1.21.92,1.87,1.63,3.8,3.29,7.58,5.73,10.95.97,1.49,2.36,2.62,3.44,4.03,8.76,13.44,18.79,25.77,31.1,36.13,22.9,21.51,49.29,37.8,77.15,51.89,5.7,2.25,11,5.33,16.53,7.95,19.33,9.16,39.03,18.13,59.68,22.81,15.38,3.48,32.04,2.62,47.68-3.71,15.95-6.45,31.4-14.02,47.25-20.63,33.17-15.53,63.18-36.23,92.53-57.87,15.31-11.29,28.25-25.38,42.16-38.32,2.28-2.12,4.08-4.75,7.08-6.01,6.25-.54,8.08-6.64,12.23-9.83,1.86-1.43,2.36-4.92,5.86-3.83Z"/>
    <path class="cls-15" d="M356.21,300.44c5.26-3.16,10.62-6,17.07-5.3,6.27.24,11.51,3.06,16,7.08,22.14,19.85,45.6,38.07,68.92,56.47,32.11,25.33,63.67,51.36,95.7,76.79,7.16,5.68,8.44,10.15,5.54,15.21-3.21,5.6-9.51,7.3-17.22,4.59-2.71-.95-5.24-2.33-7.92-3.34-6.3-2.38-10.08-.65-11.66,5.93-1.34,5.56-2.1,11.24-2.08,17.05.1,30.56-.02,61.12.12,91.67.02,4.68-1.28,9.34-.11,14.03.42,9.34.17,18.66.18,27.99,0,3.45-.34,6.74-3.06,9.27-4.76,6.52-11.51,3.12-17.14,2.67-4.08-.33-3.59-5.7-3.89-9.18-1.66-19.02-.72-38.11-1.04-57.16-.38-22.72-.22-45.44-.3-68.16-3.84-5.2-3.06-11.25-3.07-17.14-.02-6.45-.11-12.9.1-19.33.24-6.09,4.07-10.59,7.07-15.41,2.17-3.48,2.14-5.45-1.68-8.2-39.09-28.14-73.58-62.02-112.18-90.81-15.99-11.93-15.69-12.35-32.48-1.45-1.09.71-2.21,1.37-3.33,2.05-5.95,2.13-9.01,7.73-13.64,11.47-29.4,23.77-59.26,46.95-88.19,71.3-2.19,1.85-4.45,3.62-6.48,5.66-7.08,7.12-7.11,7.67-2.35,16.45,2.39,4.41,3.63,9.17,3.51,14.25-1.96,6-1.27,12.14-1.07,18.26-1.83,17.58-.25,35.21-.91,52.79-.17,4.61.19,9.75-6.37,10.58-1.98-1.23-3.91-2.54-5.95-3.67-9.06-4.98-11.52-12.39-10.78-22.69,1.18-16.33.83-32.78.82-49.19,0-11.99-4.76-15.04-16.45-11.35-3.68,1.16-7.52,2.36-11.32,2.48-5.38.17-9.66-1.96-9.74-8.43.4-6.99,6.13-9.9,10.73-13.3,29.62-21.82,57.69-45.62,86.6-68.34,23.96-18.84,48.36-37.23,70.5-58.33,2.09-1.99,4.27-3.94,7.54-3.28Z"/>
    <path class="cls-16" d="M476.97,519.18c-.57,30.78.91,61.53,1.82,92.28.2,6.84-2.17,8.35-8.5,7.98-36.17-2.08-71.62-7.9-106.13-19.15-.63-.45-1.26-1.05-1.99-1.2-12.08-2.41-12.87-12.74-14.65-21.85-1.22-6.23,2.84-10.63,8.43-12.52,14.24-4.81,27.97-11.9,43-13.38,11.92-1.17,21.8-6.26,31.75-11.79,4.66-2.59,9.34-3.73,14.69-4.23,13.61-1.29,23.47-8.64,29.35-21.16.81-.42,1.6-.39,2.39.08.57,1.67.7,3.32-.16,4.94Z"/>
    <path class="cls-13" d="M475.22,514.34c.96,6.06-1.57,10.03-6.44,13.76-8.17,6.25-16.01,12.4-27.23,9.98-2.22-.48-3.94.92-5.7,2.06-12.26,7.97-25.26,13.22-40.09,15.15-14.06,1.82-27.1,8.41-40.57,12.96-4.03,1.36-6.59,4.87-4.92,8.47,3.41,7.33,1.1,18.17,12.12,21.19.75.21,1.18,1.58,1.77,2.4-26.48-8.71-52.65-18.17-76.9-32.23-1.15-7.68,4.15-13.4,6.52-19.9,2.44-6.7,4.33-13.05,3.78-20.21-.67-8.67,2.48-12.79,10.83-15.12,5.09,1.02,7.1,6.94,12.31,7.78,10.24,7.03,21.78,9.18,33.91,9.34,9.57.12,19.1,1.28,28.65,1.8,12.49.69,22.7-3.85,32.69-10.17,2.19-1.39,4.15-3.12,6.45-4.35,6.66-4.54,13.2-4.26,20.33-.54,7.99,4.18,16.1,2.04,23.9-1.41,2.76-1.22,5.39-3.46,8.57-.97Z"/>
    <path class="cls-10" d="M172.93,421.6c12.24-12.78,27.56-21.73,40.92-33.12,8.21-7,16.7-13.66,25.06-20.47,18.58-11.67,33.95-27.38,51.15-40.8,17.62-13.74,34.86-27.96,52.26-41.97,1.79,1.26-2.19,3.89.75,4.43,6.49,1.19,8.16,7.95,13.13,10.78-34.05,32.01-71.47,59.9-107.95,88.94-20.37,16.22-40.17,33.18-61.54,48.12-2.28,1.6-3.94,4.1-5.88,6.19-1.08.64-2.17,1.29-4.18,2.48,3.39-9.47,7.4-18.47-3.72-24.57Z"/>
    <path class="cls-10" d="M318.7,522.26c-4.2-1.4-6.77-4.76-9.49-7.94-2.06-1.9-4.75-3.3-5.19-6.5-.09-1.23-.11-2.46-.12-3.69-.58-16.35,2.98-32.69-.63-49.09-1.35-6.12-3.88-11.31-7.4-16.18-2.28-3.16-5.55-4.57-9.55-4.23-9.83.84-18.81,3.89-26.8,9.8-6.77,5.01-8.21,11.68-6.26,19.48,1.04,9.93-2.32,19.85.05,29.77-.05,9.04-.04,18.08-.93,27.08,1.25,9.37-.66,18.78.37,28.16-2.6-.5-4.83-1.64-6.32-3.92-2.92-4.49-7.17-7.03-12.19-8.46,3.62-2.18,2.9-5.92,2.96-9.14.32-15.68.38-31.36.63-47.04.05-2.84.54-5.66.83-8.5,2.82-4.6,2.73-9.98,3.26-14.96,2.07-19.33,15.37-28.97,30.55-37.29,13.96-7.64,28.8-7.04,43.79-4.75,5.62.86,8.48,4.84,9.21,10.18.42,3.09.78,6.17,1.7,9.16.47,2.12.52,4.25.18,6.39-1.6,4.66-3.25,9.25-.47,14.16.86,1.52,1.06,3.61.69,5.36-2.95,14.08-1.23,29.11-8.6,42.3-1.99,3.56-2.4,7.23-.48,11.17,1.33,2.71,2.85,5.75.18,8.69Z"/>
    <path class="cls-10" d="M495.38,446.8c-.02,13.08-.03,26.17-.05,39.25-9.97-3.24-12.83-2.42-16.67,4.79-2.29-1.31-2.59-3.52-2.64-5.84.69-5.48,2.61-10.71,3.43-16.17,4.61-8.28,4.73-17.51,4.98-26.54.18-6.41-5.45-10.02-9.71-13.37-8.41-6.63-18.45-9.51-29.24-8.55-8.5.75-10.64,3.49-10.92,12.01-.22,6.66,2.14,12.8,3.27,19.2-.62,12.71-1.97,25.41-.08,38.12.47,2.87-.69,5.56-.85,8.37-.05,2.9-1.09,5.31-3.5,7.03-5.66-.66-5.07-5.29-4.98-8.87.21-8.87-.36-17.73-.14-26.59.29-12.16-2.86-22.98-10.61-32.63-6.23-7.77-8.51-17.15-8.36-27.09.06-3.82,1.16-7.36,4.04-9.86,8.39-7.29,17.19-10.59,29.19-8.43,14.97,2.69,25.96,10.4,36.4,20.35,5.06,4.82,11.61,7.75,17.32,11.79,6.5,4.59,6.83,6.97,2.03,13.07-2.33,2.96-3.92,6.07-2.91,9.98Z"/>
    <path class="cls-13" d="M252.77,548.91c-8.03-8.16-1.65-17.87-2.87-26.77,1.75-7.37,7.01-10.66,13.75-13.14,8.53-3.14,17.33-5.28,25.94-8.09,8.01-2.61,12.12-.54,16.52,7.12.99,2.12,3.33,3.56,3.1,6.29-6.62,2.75-10.36,6.62-8.46,14.83,1.44,6.22.29,12.74-3.39,18.4-.42.65-1.08,1.2-1.31,1.9-2.19,6.56-3.31,13.61-8.79,18.61-11.5-6.38-23-12.77-34.5-19.15Z"/>
    <path class="cls-4" d="M478.48,484.56c.06,2.09.12,4.18.18,6.28-1.02,9.42.91,19.02-1.69,28.34-.16-1.58-.32-3.16-.48-4.74-2.59-2.64-2.61-6.04-3.04-9.42-1.29-10.15-4.83-12.17-14.05-8.04-8.11,3.64-16.32,4.72-24.83,1.62.06-2.6.12-5.21.18-7.81,1.41-8.23.25-16.57,1.22-24.87.74-6.29,3.73-10.12,9.21-12.29,9.44-3.75,18.95-2.6,28.17.66,5.13,1.81,7.82,6.14,7.09,11.74-.8,6.17-.78,12.41-1.95,18.54Z"/>
    <path class="cls-10" d="M495.38,446.8c-2.4-4.15-2.24-8.28,1.56-11.21,5.52-4.26,2.21-8.39-1.15-9.83-14.96-6.4-24.79-19.78-38.64-27.58-2.19-1.24-4.34-1.47-6.69-1.6-2.58-.14-5.56.29-7.66-.84-10.64-5.74-18.54-.15-26.59,5.7-3.34,2.43-4.15,5.34-3.95,9.42.52,11.04,3.97,20.31,11.47,28.87,5.42,6.18,7.41,14.86,7.6,23.35.25,11.16.04,22.34.1,33.51.02,2.82-.61,5.78,1.2,8.36,3.13,7.43-3.64,9.31-7.22,12.98-5.13-1.36-6.48-4.47-7.67-9.94-2.88-13.24-.84-26.2-.52-39.28.09-3.48-1.92-5.8-3.81-8.32-2.63-3.52-6.84-5.78-8.23-10.3-.47-2.67.36-5.17,1.25-7.59,3.03-8.29,1.02-15.46-5.28-21.19-6.39-5.81-13.25-4.54-19.92-.07-.64.43-1.4.67-2.14.92-7.06,2.19-14.01.52-20.98-.59-6.41-2.69-12.63-6.64-20.02-3.33-4.67,2.09-8.52,4.97-9.88,10.31-.57,2.24-.95,4.68-3.52,5.71-2.79-1.59-1.35-4.06-1.36-6.28-.05-7.8-3.88-10.97-11.71-9.95-1.51.2-3.19.39-4.58-.06-18.03-5.85-32.02,3.4-46.06,12.32-10.03,6.38-15.62,15.2-16.4,27.53-.3,4.8-1.65,10.35-5.91,14.05.35-6.28-.92-12.71,1.8-18.76-.57-11.08,5.45-19.12,12.42-26.59,9.98-10.7,20.45-20.33,34.59-26.06,14.71-5.96,27.04-16.45,39.19-26.66,7.38-6.21,16.25-10.32,23.09-17.25,2.01-2.04,4.5-3.63,5.45-6.48.97-2.93,1.68-5.91-3.09-5.92-3.02,0-6.74,1.41-8.39-2.24-1.97-4.35,3.93-4.89,4.62-8.13,4.99-3.64,10.04-7.2,14.95-10.95,3.67-2.81,7.15-2.57,10.68.07,22.5,16.84,44.68,34.09,66,52.41,13.62,11.7,26.74,23.94,41.32,34.54,7.12,5.17,13.72,11.13,21.12,15.96,3.79,2.47,2.37,5.29.63,7.92-2.79,4.23-6.25,8.05-7.69,13.09Z"/>
    <path class="cls-10" d="M348.37,333.76c2.04,3.88-4.42,4.19-3.23,7.72,1.4,1.49,2.9.44,4.32.1,3.17-.75,6.79-3.12,9.06.93,2.07,3.69,1.36,8.03-1.37,11.01-5.2,5.67-10.95,10.99-17.67,14.73-3.68,2.05-7.17,4.23-10.21,7-12.07,11.01-25.08,21.25-39.86,27.59-12.71,5.45-22.4,13.57-31.87,22.87-7.95,7.8-13.28,17.05-17.05,27.38-1.24-6.72-3.3-13.16-8.67-17.69-2.59-2.18-.91-2.78.26-4.53,4.56-6.8,10.63-11.96,16.9-17.05,31.44-25.52,62.76-51.19,94.16-76.76,1.59-1.29,3.48-2.21,5.23-3.3Z"/>
    <path class="cls-13" d="M425.03,517.04c4.03-3.09,5.85-7.58,7.61-12.11.64-2.11,1.28-4.22,1.92-6.33,3.57-2.04,7.5-1.6,11.34-1.54,4.17.06,7.92-.49,11.74-2.76,11.38-6.77,18.13-3.08,19.03,10.07.23,3.34-.11,6.71-.19,10.07-.42-.07-.84-.11-1.27-.1-4.95,1.46-8.69,5.27-13.87,6.57-6.82,1.71-13.76,2.49-19.63-1.09-6.22-3.8-11.69-4.16-17.78-.8-.96-1.39-.13-1.79,1.09-1.98Z"/>
    <path class="cls-10" d="M425.03,517.04c-.36.66-.73,1.32-1.09,1.98-10.24,9.65-21.77,16.35-36.39,16.04-16.08-.34-32.11-1.33-48.09-3.14-7.99-.91-14.78-4.41-20.76-9.66-.23-1.01-.12-2.34-.73-2.97-8.38-8.64-3.4-16.71,1.29-24.44,4.47-7.38,2.19-15.66,3.96-23.41,1.58-6.9,2.51-14.12-.66-21.32-1.23-2.8.57-6.54,2.2-9.54,6.39,9.46,15.89,10.1,25.97,9.37,3.33-.24,6.79-.26,9.71,1.93,2.39,3.84-.92,4.45-3.21,5.19-3.21,1.03-6.59.8-9.57.33,1.54,4.85,7.83,7.39,6.9,13.77-1.97,1.72-4.31,1.94-6.76,1.73-4.83-.54-9.58-3.5-14.51-.47-6.92,6.44-6.22,14.7-4.28,22.49,2.29,9.21,17.72,12.9,27.19,7.06,1.08-.67,1.96-1.68,3.09-2.32,3.51-6.47,6.36-13.34,11.35-18.9,1.89-2.11,2.94-5.97,7.13-3.67,2.92,4.19,1.92,9,2.04,13.59.27,10.14,1.83,13.17,7.57,13.99,9.06,1.29,16.28-2.85,19.22-10.73,2.16-5.78.6-11.88,1.83-17.71,1.46-3.25.66-5.38-2.28-7.75-4.45-3.6-9.53-7.27-8.69-14.31,1.72-3.77,4.35-5.72,8.64-4.32,9.49,6.6,17.05,13.53,13.28,27.34-1.57,5.76,1.74,12.58-1.51,18.93-1.09,2.12,1.36,4.82,3.07,6.84,1,1.18,2.86,3,1.8,3.94-5.8,5.1,1.55,6.82,2.31,10.15Z"/>
    <path class="cls-4" d="M306.11,508.03c-6.04-5.19-12.18-7.02-19.92-2.82-4.45,2.42-10.01,2.7-14.93,4.36-7.95,2.7-16.13,5.17-21.37,12.57.02-9.41.04-18.83.07-28.24.87-16.24,10.72-22.34,25.59-22.84,1.27-.04,2.55-.44,3.84-.57,16.44-1.63,23.6,4.55,24.49,21.18.07,1.3.08,2.59.35,3.86.89,3.08.72,6.39,1.93,9.42-.01,1.02-.03,2.05-.04,3.07Z"/>
    <path class="cls-1" d="M303.07,497.07c-1.22-5-2.08-10.12-3.74-14.97-1.93-5.65-5.76-8.82-12.34-8.73-7.08.09-13.94,1.54-20.88,2.42-6.16.78-10.42,4.36-12.37,10.5-.86,2.71-1.45,5.61-3.78,7.61,0-10.46-.02-20.92-.03-31.38,1.68-8.13,7.49-11.55,14.69-14.49,9.97-4.07,19.46-1.44,29.08.32,3.14.58,5.45,3.13,6.78,6.1,6.21,13.86,6.11,28.14,2.58,42.61Z"/>
    <path class="cls-8" d="M360.76,452.5c-8.63,1.95-17.4,1.55-25.99.44-6.5-.83-9.66-5.8-10.01-12.36-.02-2.11-.04-4.22-.06-6.33-.39-8.66,3.14-15.21,11.04-18.73,8.75-3.89,16.66-1.45,23.77,4.45,1.78,1.09,3.71,2.29,4.01,4.45,1.18,8.42,1.52,16.87-.26,25.27-.27,1.28-1.34,2.16-2.49,2.81Z"/>
    <path class="cls-5" d="M303.07,497.07c.12-13.24-.01-26.4-4.27-39.21-1.54-4.62-4.24-6.95-8.71-7.64-15.34-2.36-29.79-1.72-40.15,12.3-.18-16.26,9.08-26.79,26.12-29.67,1.27-.22,2.6-.12,3.88-.32,15.27-2.32,23.9,5.54,26.55,21.11,2.94,17.29-1.09,34.22-.34,51.31-2.01-2.24-2.34-5.15-3.09-7.88Z"/>
    <path class="cls-1" d="M478.48,484.56c-.06-6.27-.18-12.55-.18-18.82,0-4.5-2.21-8.09-6.25-8.91-6.31-1.28-12.7-2.99-19.31-2-11.69,1.74-15.77,6.88-16.62,20.57-.32,5.14,1.31,10.47-1.39,15.39-.06-13.61-.12-27.22-.18-40.83,3.59-14.82,8.74-18.82,24.46-18.97,4.41-.04,8.85-.28,13.23.23,7.9.93,12.6,6.57,11.93,14.47-.65,7.72.17,15.63-2.65,23.11-.59,5.34-1,10.71-3.04,15.76Z"/>
    <path class="cls-5" d="M481.52,468.81c-.02-8.1,0-16.21-.07-24.31-.06-6.68-3.48-10.19-10.15-10.19-7.03,0-14.18-.56-21.05.52-8.26,1.29-11.73,8.73-15.69,15.14-1.78-7.04-3.89-13.96-3.24-21.46.43-5,2.08-8.36,7.09-9.95,15.77-5.02,40.14,1.18,47.91,19.69,3.83,9.12.9,20.98-4.79,30.57Z"/>
    <path class="cls-12" d="M437.47,140.82c-5.21-2.57-2.1-7.31-2.87-11.04,1.93,3.43,3.21,7.02,2.87,11.04Z"/>
    <path class="cls-10" d="M360.76,452.5c.1-8.09.19-16.17.32-24.26.05-2.88.04-5.73-1.58-8.27,6.32-1.09,12.59,1.69,18.92.24,2.79,2.49,1.81,5.68,1.65,8.74-.25,4.67.01,9.34-.18,14-.24,5.83,2.06,8.71,8.13,8.52,3.54-.11,7.37-.45,9.99,2.92,2.37,5.54,7.13,9.05,11.08,13.27,1.98,2.11,5.21,4.15,1.63,7.56-4.39,1.54-8.58-.31-12.79-.97-7.46-1.17-14.7-1.32-21.58,2.39-3.22,8.61-12.19,13.92-13.42,23.82-.29,2.3-1.65.65-2.12-.62-3.68-2.84-3.01-6.98-2.99-10.79.03-6.51.12-12.97-3.07-18.94-3.28-1.54-6.4-3.17-7.04-7.33-.69-4.54-5.65-4.5-8.53-7.07,7.28-2.96,15.14,1.98,21.57-3.19Z"/>
    <path class="cls-17" d="M398.01,454.38c-4.65-.05-9.33-.51-13.93-.05-5.65.56-7.95-1.17-7.65-7.15.45-9.01-.73-18.13,1.98-26.98,8.57-7.25,15.29-8.1,23.19-2.95,7.56,4.93,10.68,14.51,8.32,24.11-.78,3.16-2.62,5.64-3.84,8.48-2.69,1.51-5.39,3.02-8.08,4.54Z"/>
    <path class="cls-9" d="M354.76,470.1c4.56.39,6.68,2.5,6.38,7.46-.44,7.4-.25,14.84-.33,22.26-.71,4.99-3.41,7.16-8.59,7.48-5.2.32-10.37.72-15.37-.72-7.54-2.17-11.86-7.37-11.71-15.36.15-7.77-3.19-17.17,8.12-20.61,4.47-2.02,9.05-.98,13.61-.49,2.63,0,5.25-.01,7.88-.02Z"/>
    <path class="cls-11" d="M376.35,476.62c-.07-4.36,1.56-6.72,6.41-6.34,9.49.74,19.35-.82,27.96,4.92.21,8.97,2.1,18.13-4.32,26.1-4.14,5.14-19.38,9.1-24.98,6.05-3.19-1.74-3.74-5.01-3.97-8.07-.57-7.54-.76-15.1-1.1-22.66Z"/>
    <ellipse class="cls-18" cx="596.25" cy="342.25" rx="48.14" ry="40.24"/>
    <path class="cls-10" d="M537.7,475.03c-2.38,49.39-2.37,75.18-1.64,89.45.05,1.04.1,2.08.15,3.12,1.62,31.65,3.98,47.52.2,48.67-1.28.39-1.92-1.32-4.5-1.32-4.95,0-6.83,6.35-8.89,6.45-9.42.46-6.4-130.06-4.09-160.96.21-2.78.96-9.72,5.27-12.18,3.12-1.78,7.61-1.12,13.53,1.82,3.04,1.51,6.04,2.97,9.42,3.61,5,.95,8.67-.62,10.98-5.21,2.34-4.65-1.39-6.78-4.06-8.92-28.01-22.45-56.24-44.62-84.15-67.2-27.91-22.59-56.85-43.92-83.22-68.38-3.97-3.68-8.66-6.32-13.41-8.84.69-.27,1.39-.67,1.45-1.23.17-1.51-4.53-2.4-4.54-4.08-.02-1.75,5.06-3.14,6.25-3.47,4.01-1.1,5.89-.62,10.07-1.39,2.84-.53,5.19-1.35,6.94-2.08,1.42-.03,2.97.07,4.6.4,8.72,1.74,13.9,8.61,15.72,11.32,6.7,5.88,13.49,11.77,20.37,17.66,3.45,2.96,6.89,5.89,10.33,8.8,6.53,4.76,13.13,9.73,19.78,14.92,15.53,12.11,29.88,24.27,43.12,36.26,5.55,3.4,11.3,7.28,17.13,11.71,1.9,1.44,3.74,2.89,5.51,4.34,7.81,5.81,14.6,12.91,22.88,18.15,8.21,5.96,16.22,12.15,22.88,19.89,6.03,7,11.24,14.63,11.56,24.16.32,9.48-3.79,17.61-11.91,22.36-11.95,7-24.76,8.19-37.71,2.16Z"/>
    <ellipse class="cls-2" cx="644.58" cy="514.15" rx="18.36" ry="20.92"/>
  </g>
  <g id="Capa_2" data-name="Capa 2">
    <path class="cls-14" d="M156.13,74.86s-31.17,98.11,212.56,185.11c0,0,146.55-21.29,243.73-155.49.95-1.32-33.94-27.16-35.99-28.63-27.88-19.99-57.91-37.44-89.9-49.97-79.95-31.3-175.83-17.72-254.24,11.91-26.16,9.89-52.73,21.59-76.16,37.07Z"/>
    <path class="cls-2" d="M399.54,284.03c6.45,4.85,50.96-20.56,56.6-23.37,52.58-26.19,100.65-60.28,145.95-97.48,12.58-10.34,34.27-26.83,47.32-11.89,6.86,7.86,12.98,16.46,18.76,25.13,20.39,30.58,35.84,64.53,45.94,99.86,12.51,43.77,16.17,89.8,11.95,135.08-4.76,50.96-11.88,99-49.3,136.65-36.51,36.72-85.51,58.35-137.11,61.79l-.35.02s-.93-136.98-.93-136.98c0,0,49.98,8.33,42.57-32.39-24.06-37.95-181.4-156.41-181.4-156.41Z"/>
    <path class="cls-6" d="M130.36,106.33s-4.63,100.88,212.87,174c-10.17,8.43-20.34,16.86-30.51,25.28-21.67,17.96-43.33,35.92-65,53.87-19.96,16.54-39.91,33.08-59.87,49.62-4.98,4.13-10.02,8.18-14.99,12.31-6.73,5.6-9.64,18.54-8.71,27.04,1.35,12.32,11.98,18.13,23.27,19.88,3.77.59,7.6.79,11.41.79,0,0,4.63,36.1,4.63,36.09-.15-1.4-2.39-2.89-3.36-3.74-1.62-1.42-2.98-2.88-4.42-4.53-3.34-3.85-6.78-7.62-10.26-11.34-6.97-7.45-14.11-14.74-20.97-22.29-8.83-9.72-17.23-19.93-23.97-31.23-7.21-12.09-11.91-25.63-17.35-38.59-11.85-28.27-21.24-57.67-27.13-87.78-6.88-35.18-8.95-71.6-3.13-107.09,2.63-16.07,6.89-31.87,12.88-47.01,3.11-7.86,6.68-15.53,10.69-22.96,2.11-3.91,4.34-7.75,6.69-11.52,1.5-2.4,7.08-8.16,7.2-10.82Z"/>
    <path class="cls-2" d="M78.23,161.09s-185.41,290,76.61,494.85c272.94,175.54,475.94-36.71,475.94-36.71,0,0-176.62,84.99-391.81-52.45C-16.49,386.3,78.23,161.09,78.23,161.09Z"/>
    <circle class="cls-10" cx="372.25" cy="155.21" r="90.9"/>
    <circle class="cls-14" cx="371.62" cy="155.21" r="69.08"/>
    <g>
      <path class="cls-7" d="M439.94,164.89c-3.48,24.97-15.56,44.26-39.09,54.03-23.45,9.74-46.64,8.15-68-6.96-.84-16.75,7.09-29.37,22.27-34.81,12.36-4.43,22.96-11.82,32.99-19.91,10.61-8.57,22.35-12.55,35.82-12.01,10.58.42,12.74,1.92,16.51,11.83-.03,2.62.6,5.28-.5,7.82Z"/>
      <path class="cls-12" d="M439.64,156.55c-11.31-11.33-33.56-10.45-47.25,1.25-11.98,10.24-24.64,19.56-40.34,23.56-11.38,2.9-12.62,13.33-15.38,22.19-.96,3.09-1.26,6.16-3.82,8.41-13.65-8.98-21-22.27-25.54-37.49-1.79-11.01-1.1-12.84,9.21-15.47,17.98-4.58,35.12-11,51.58-19.63,7.3-3.83,15.6-5.8,24.08-5.5,8.7.31,16.94-1.26,25.17-4.17,6.12-2.16,12.66-5.05,19.21-.71h0c1.52,3.66.26,8.05,2.96,11.39.13.95.26,1.9.39,2.85.89,4.46,1.29,8.9-.28,13.3Z"/>
      <path class="cls-3" d="M436.57,129c-7.86,1.47-15.89,2.11-23.28,5.74-2.81,1.38-6.27,2.41-9.32,2.17-17.18-1.34-33.02,3.04-47.47,11.77-12.46,7.53-26.5,9.66-40,13.59-6.72,1.95-10.41,4.87-9.18,12.21-4.41-8.26-3.31-17.16-3.05-25.97,9.21-9.53,21-14.55,33.18-18.72,3.59-1.23,7.18-2.32,10.09-4.74,13.31-11.1,28.72-17.53,45.49-21.07,2.54-.54,5.64-.45,6.69-3.61,2.05-6.17,6.39-5.31,11.01-3.83,13.31,7.07,22.51,17.42,25.84,32.47Z"/>
      <path class="cls-14" d="M410.73,96.53c-3.64,1.2-10.09-.71-7.51,7.25.66,2.02-1.59,2.42-3.22,2.54-13.91.98-27.6,4.72-38.26,13.04-12.75,9.95-28.17,13.54-41.54,21.6-5.03,3.04-10.16,6.02-15.93,7.54-.64-32.09,30.48-64.28,62.26-65,16.28-.37,31.43,1.98,44.21,13.02Z"/>
    </g>
  </g>
</svg>