<?xml version="1.0" encoding="UTF-8"?>
<svg id="Capa_1" data-name="Capa 1" xmlns="http://www.w3.org/2000/svg" viewBox="0 0 737.01 737.01">
  <defs>
    <style>
      .cls-1 {
        fill: #9cb7a6;
      }

      .cls-2 {
        fill: #416e6b;
      }

      .cls-3 {
        fill: #77b295;
      }

      .cls-4 {
        fill: #95ad9d;
      }

      .cls-5 {
        fill: #a3c1b0;
      }

      .cls-6 {
        fill: #92b0a0;
      }

      .cls-7 {
        fill: #72a589;
      }

      .cls-8 {
        fill: #152529;
      }

      .cls-9 {
        fill: #172726;
      }

      .cls-10 {
        fill: #fff;
      }

      .cls-11 {
        fill: #172626;
      }

      .cls-12 {
        fill: #76ad90;
      }

      .cls-13 {
        fill: #8ea394;
      }

      .cls-14 {
        fill: #7ab99c;
      }

      .cls-15 {
        fill: #1a2428;
      }

      .cls-16 {
        fill: #87998c;
      }

      .cls-17 {
        fill: #172a2b;
      }

      .cls-18 {
        fill: #e0ded4;
      }
    </style>
  </defs>
  <g id="Capa_2" data-name="Capa 2">
    <g>
      <path class="cls-10" d="M155.46,134.86c2-1.34,3.86-2.77,6.62-1.61,2.41,1.02,4.65-.32,6.93-1.16,1.77-.66,3.58-2.31,5.69-.71,2.18,2.54,1.15,5.31.43,7.97-3.33,12.44-7.07,24.79-8.66,37.62-.85,6.84-1.74,13.71-1.74,20.61,0,12.8-1.13,25.66,1.53,38.35,1.51,11.49,3.9,22.83,7.4,33.84,5.34,16.77,11.41,33.3,21.09,48.2,5.91,8.97,10.1,19.07,17.57,27.03,1.06,1.12,1.56,2.52,2.26,3.82,2.23,3.88,5.99,6.44,8.59,10,5.53,7.95,11.99,15.01,19.93,20.5.7-5.13,1.82-10.22-1.47-14.87-1.88-1.52-4.13-1.27-6.3-1.38-4.3-.22-8.24-1.47-11.75-4.01-3.04-3.76-7.17-6.6-9.39-11.08-3.29-9.35.7-18.52,11.02-25.39.52-.24,1.07-.36,1.64-.4,5.99,1.93,8.34,6.37,7.01,13.42-.29,1.51-1.69,3.11.67,4.19,2.37,3.15,5.57,3.46,9.05,2.66,1.99-.46,3.94-1.14,5.96-1.44,7.33-1.09,12.21,2.46,12.49,9.91.44,11.37,1.18,22.87-.3,34.11-1.03,7.83.77,13.07,7.38,16.91.8.46,1.58.99,2.23,1.66,5.82,1.5,8.64,7.33,13.88,9.68,8.31,4.58,16.67,9.06,24.94,13.72,15.28,8.82,32.22,13.84,48.13,21.2,2.36,1.09,4.88,1.87,7.57,1.8,14.72,4.06,29.53,7.66,44.61,10.14,9.01,1.48,18.15,1.52,27.18,2.81,4.24.61,6.14-1.38,6.12-5.74-.06-8.78-.48-17.52-.9-26.29-.6-12.48-.81-25.03.63-37.52,1.83-6.72.45-13.61,1.03-20.4,3.91-7.47,8.55-8.57,14.88-3.54,1.88,2.86,1.37,6.11,1.38,9.24.06,23.12.02,46.24.03,69.37,0,2.24-.07,4.48.12,6.71.79,9.02,3.07,10.61,11.89,8.36,4.74-1.28,9.73-.06,14.47-1.42,15.24-.93,29.77-5.05,44.07-10.04,9.86-3.44,19.45-7.68,29.76-9.7.56.09,1.08.32,1.53.67.8,4.75-.93,7.56-5.9,8.75-7.65,1.83-14.66,5.42-22.04,7.86-7.3,2.42-14.14,5.51-20.96,8.92-4.23,2.12-8.79.66-13.67-.62,1.11,1.75,2.67,3.52.75,5.18-3.06,2.64-6.31.72-9.5-.03.83,5.78-.24,7.63-6.33,8.94-3.43.74-6.33,1.81-8.32,4.81-7.45,3.16-15.35,1.33-23.02,1.97-9.4.79-18.83-.17-28.21-1.07-3.52.27-6.92-1.45-10.47-.63-2.92.52-5.53-.82-8.26-1.41-5.7-.4-11.18-1.86-16.61-3.52-27.41-6.21-54.32-14.02-79.39-26.99-25.96-13.43-50.68-28.91-72.79-48.21-22.64-19.76-43.42-41.31-59.57-66.82-13.06-20.63-23.97-42.38-29.17-66.58-4.05-7.62-4.39-16.14-5.94-24.37-3.19-16.86-2.32-33.9-2.28-50.9.02-6.01,1.76-11.81,2.56-17.73.25-12.94,4.43-24.96,8.67-36.96,1-2.82,2.36-5.49,3.22-8.36Z"/>
      <path class="cls-10" d="M540.34,103.26c5.05.05,7.23,4.53,8.23,7.72,1.38,4.38,3.51,8.91,3.05,13.81,1.36,2.4-.42,3.7-2.03,4.36-12.1,5-19.9,15.51-29.81,23.3-5.55,4.37-10.96,8.95-16.57,13.26-18.26,12.62-36.19,25.72-55.53,36.74-8.97,5.11-18.45,8.92-27.85,13.01-8.58,2.31-16.64,6.32-25.33,8.2-4.82,1.04-.39,4.42-2.01,6.1-4.61,4.44-9.73,7.01-16.33,4.77-1.54-.52-3.25-.49-4.88-.09-4.25.6-8.06,2.84-12.31,3.46-5.13-2.77-10.61-5.2-12.23-11.68-.27-1.16-1.02-1.94-2.05-2.49-4.11-2.43-8.89-2.66-13.28-4.15-37.04-12.62-69.89-32.61-99.49-57.94-8.85-7.57-17.18-16.05-23.14-26.37-.69-1.19-2.07-1.59-2.72-2.76-1.37-1.98-2.46-4.14-3.7-6.21-2.31-3.43-4.22-7.07-5.76-10.91-1.72-6.64-4.88-13-3.96-20.17,2.03-3.29,4.54-4.09,7.92-1.79,1.02.69,2.43.83,3.69,1.12,4.25.97,6.52,2.08,8.45,4.19,3.53,1.38,3.77,5.12,5.53,7.77.27.42.49.87.66,1.34,1.17,2.72,2.36,5.43,4.11,7.85.69,1.07,1.69,1.88,2.46,2.89,6.28,9.63,13.47,18.47,22.29,25.9,16.41,15.42,35.33,27.1,55.3,37.2,4.09,1.61,7.88,3.82,11.85,5.7,13.85,6.57,27.98,13,42.78,16.35,11.02,2.5,22.97,1.88,34.17-2.66,11.43-4.63,22.5-10.05,33.87-14.79,23.78-11.13,45.29-25.97,66.33-41.48,10.98-8.09,20.25-18.19,30.22-27.47,1.63-1.52,2.93-3.41,5.07-4.31,4.48-.39,5.79-4.76,8.76-7.05,1.34-1.03,1.69-3.53,4.2-2.74Z"/>
      <path class="cls-15" d="M358.56,236.8c3.77-2.27,7.61-4.3,12.24-3.8,4.49.17,8.25,2.19,11.47,5.08,15.87,14.23,32.68,27.29,49.4,40.48,23.02,18.15,45.64,36.81,68.6,55.04,5.13,4.07,6.05,7.28,3.97,10.9-2.3,4.02-6.81,5.23-12.35,3.29-1.94-.68-3.76-1.67-5.68-2.4-4.51-1.71-7.23-.46-8.36,4.25-.96,3.99-1.5,8.06-1.49,12.22.07,21.9-.02,43.81.09,65.71.02,3.35-.92,6.69-.08,10.06.3,6.69.12,13.38.13,20.06,0,2.47-.24,4.83-2.19,6.64-3.41,4.67-8.25,2.23-12.29,1.91-2.92-.23-2.57-4.09-2.79-6.58-1.19-13.64-.52-27.32-.74-40.98-.27-16.28-.16-32.57-.21-48.86-2.75-3.73-2.19-8.07-2.2-12.29-.01-4.62-.08-9.25.07-13.85.17-4.37,2.92-7.59,5.07-11.05,1.55-2.5,1.53-3.91-1.2-5.88-28.02-20.17-52.74-44.45-80.42-65.09-11.46-8.55-11.24-8.85-23.28-1.04-.78.51-1.59.99-2.39,1.47-4.27,1.53-6.46,5.54-9.78,8.22-21.07,17.04-42.48,33.65-63.22,51.11-1.57,1.32-3.19,2.6-4.64,4.06-5.07,5.1-5.1,5.5-1.68,11.79,1.72,3.16,2.6,6.57,2.51,10.22-1.41,4.3-.91,8.7-.77,13.09-1.31,12.6-.18,25.24-.65,37.84-.12,3.31.14,6.99-4.57,7.59-1.42-.88-2.8-1.82-4.27-2.63-6.5-3.57-8.26-8.88-7.73-16.26.85-11.71.6-23.5.59-35.26,0-8.6-3.42-10.78-11.79-8.14-2.64.83-5.39,1.69-8.11,1.78-3.86.12-6.92-1.41-6.98-6.05.29-5.01,4.39-7.1,7.69-9.53,21.23-15.64,41.36-32.7,62.08-48.99,17.18-13.5,34.67-26.69,50.53-41.81,1.5-1.43,3.06-2.82,5.41-2.35Z"/>
      <path class="cls-16" d="M445.12,393.59c-.41,22.07.65,44.11,1.31,66.15.15,4.9-1.55,5.98-6.09,5.72-25.92-1.49-51.34-5.66-76.07-13.73-.45-.33-.9-.76-1.43-.86-8.66-1.73-9.22-9.13-10.5-15.67-.87-4.47,2.04-7.62,6.04-8.97,10.21-3.45,20.05-8.53,30.83-9.59,8.54-.84,15.63-4.49,22.76-8.45,3.34-1.86,6.69-2.67,10.53-3.04,9.76-.92,16.83-6.19,21.04-15.17.58-.3,1.15-.28,1.71.06.41,1.19.5,2.38-.11,3.54Z"/>
      <path class="cls-13" d="M443.87,390.12c.69,4.34-1.13,7.19-4.62,9.86-5.86,4.48-11.48,8.89-19.52,7.15-1.59-.34-2.82.66-4.09,1.48-8.79,5.71-18.1,9.48-28.73,10.86-10.08,1.31-19.43,6.03-29.08,9.29-2.89.98-4.73,3.49-3.53,6.07,2.45,5.26.79,13.02,8.69,15.19.54.15.85,1.13,1.27,1.72-18.98-6.25-37.74-13.02-55.12-23.1-.83-5.51,2.98-9.6,4.68-14.27,1.75-4.8,3.1-9.36,2.71-14.49-.48-6.21,1.78-9.17,7.77-10.84,3.65.73,5.09,4.97,8.83,5.58,7.34,5.04,15.61,6.58,24.31,6.69,6.86.09,13.69.91,20.54,1.29,8.95.5,16.27-2.76,23.43-7.29,1.57-.99,2.97-2.24,4.62-3.11,4.78-3.25,9.46-3.06,14.58-.38,5.73,2.99,11.54,1.46,17.13-1.01,1.98-.87,3.87-2.48,6.14-.69Z"/>
      <path class="cls-10" d="M227.19,323.65c8.77-9.16,19.76-15.58,29.33-23.74,5.88-5.02,11.97-9.79,17.96-14.68,13.32-8.36,24.34-19.63,36.67-29.24,12.63-9.85,24.99-20.04,37.46-30.09,1.28.9-1.57,2.79.54,3.17,4.65.85,5.85,5.7,9.41,7.73-24.41,22.94-51.23,42.94-77.38,63.75-14.6,11.63-28.79,23.78-44.11,34.49-1.64,1.14-2.82,2.94-4.22,4.44-.78.46-1.55.92-3,1.78,2.43-6.79,5.31-13.24-2.67-17.61Z"/>
      <path class="cls-10" d="M331.68,395.8c-3.01-1-4.85-3.41-6.8-5.69-1.48-1.36-3.41-2.36-3.72-4.66-.07-.88-.08-1.76-.09-2.64-.42-11.72,2.14-23.44-.45-35.19-.97-4.39-2.78-8.11-5.3-11.6-1.64-2.27-3.97-3.28-6.85-3.03-7.04.6-13.48,2.79-19.21,7.02-4.86,3.59-5.88,8.37-4.49,13.96.75,7.12-1.66,14.23.04,21.34-.04,6.48-.03,12.96-.67,19.41.9,6.71-.47,13.46.27,20.19-1.87-.36-3.47-1.18-4.53-2.81-2.09-3.22-5.14-5.04-8.74-6.06,2.59-1.56,2.08-4.25,2.12-6.55.23-11.24.27-22.48.45-33.72.03-2.03.39-4.06.6-6.09,2.02-3.29,1.95-7.15,2.34-10.73,1.48-13.85,11.02-20.77,21.9-26.73,10.01-5.48,20.65-5.05,31.39-3.41,4.02.62,6.08,3.47,6.61,7.3.3,2.22.56,4.42,1.22,6.57.34,1.52.37,3.04.13,4.58-1.15,3.34-2.33,6.63-.34,10.15.62,1.09.76,2.59.5,3.84-2.11,10.09-.88,20.87-6.17,30.32-1.43,2.55-1.72,5.19-.34,8.01.95,1.94,2.05,4.12.13,6.23Z"/>
      <path class="cls-10" d="M458.32,341.71c-.01,9.38-.02,18.76-.03,28.13-7.15-2.32-9.19-1.73-11.95,3.44-1.64-.94-1.86-2.52-1.89-4.19.49-3.93,1.87-7.68,2.46-11.59,3.3-5.93,3.39-12.55,3.57-19.02.13-4.59-3.91-7.18-6.96-9.59-6.03-4.76-13.22-6.81-20.96-6.13-6.1.54-7.63,2.5-7.83,8.61-.16,4.77,1.53,9.18,2.34,13.77-.44,9.11-1.41,18.22-.06,27.32.34,2.05-.5,3.99-.61,6-.04,2.08-.78,3.81-2.51,5.04-4.05-.48-3.63-3.79-3.57-6.36.15-6.36-.26-12.71-.1-19.06.21-8.72-2.05-16.47-7.61-23.39-4.47-5.57-6.1-12.29-5.99-19.42.04-2.74.83-5.28,2.89-7.07,6.01-5.22,12.32-7.59,20.92-6.04,10.73,1.93,18.61,7.45,26.09,14.59,3.63,3.46,8.33,5.56,12.42,8.45,4.66,3.29,4.9,5,1.46,9.37-1.67,2.12-2.81,4.35-2.08,7.15Z"/>
      <path class="cls-13" d="M284.41,414.9c-5.76-5.85-1.18-12.81-2.05-19.19,1.26-5.29,5.03-7.64,9.86-9.42,6.11-2.25,12.42-3.79,18.59-5.8,5.74-1.87,8.69-.39,11.84,5.1.71,1.52,2.39,2.56,2.22,4.51-4.75,1.97-7.42,4.75-6.07,10.63,1.03,4.46.21,9.13-2.43,13.19-.3.46-.77.86-.94,1.36-1.57,4.7-2.37,9.76-6.3,13.34-8.24-4.58-16.49-9.15-24.73-13.73Z"/>
      <path class="cls-4" d="M446.21,368.78c.04,1.5.09,3,.13,4.5-.73,6.75.65,13.63-1.21,20.32-.11-1.13-.23-2.27-.34-3.4-1.86-1.89-1.87-4.33-2.18-6.76-.93-7.28-3.46-8.72-10.07-5.76-5.82,2.61-11.7,3.39-17.8,1.16.04-1.87.09-3.73.13-5.6,1.01-5.9.18-11.88.87-17.83.53-4.51,2.67-7.25,6.6-8.81,6.77-2.69,13.59-1.86,20.19.47,3.68,1.3,5.6,4.4,5.08,8.41-.57,4.42-.56,8.9-1.4,13.29Z"/>
      <path class="cls-10" d="M458.32,341.71c-1.72-2.98-1.6-5.93,1.12-8.03,3.96-3.05,1.59-6.02-.82-7.05-10.73-4.59-17.77-14.18-27.7-19.77-1.57-.89-3.11-1.06-4.79-1.15-1.85-.1-3.98.21-5.49-.6-7.63-4.11-13.29-.11-19.06,4.08-2.4,1.74-2.97,3.83-2.83,6.75.38,7.91,2.84,14.56,8.22,20.69,3.88,4.43,5.31,10.65,5.45,16.73.18,8,.03,16.01.07,24.02.01,2.02-.44,4.14.86,5.99,2.24,5.32-2.61,6.68-5.17,9.31-3.68-.98-4.65-3.2-5.5-7.13-2.07-9.49-.6-18.78-.37-28.16.06-2.49-1.38-4.16-2.73-5.97-1.89-2.53-4.91-4.14-5.9-7.38-.34-1.92.26-3.7.9-5.44,2.17-5.95.73-11.08-3.79-15.19-4.58-4.16-9.5-3.26-14.28-.05-.46.31-1,.48-1.53.66-5.06,1.57-10.04.37-15.04-.42-4.6-1.93-9.05-4.76-14.35-2.39-3.34,1.5-6.11,3.57-7.08,7.39-.41,1.6-.68,3.35-2.52,4.09-2-1.14-.97-2.91-.98-4.5-.04-5.59-2.78-7.87-8.39-7.13-1.08.14-2.28.28-3.28-.04-12.92-4.2-22.95,2.44-33.01,8.83-7.19,4.57-11.2,10.9-11.76,19.73-.22,3.44-1.18,7.42-4.23,10.07.25-4.5-.66-9.11,1.29-13.45-.41-7.94,3.91-13.7,8.9-19.06,7.16-7.67,14.66-14.57,24.8-18.68,10.54-4.27,19.38-11.79,28.09-19.11,5.29-4.45,11.65-7.4,16.55-12.36,1.44-1.46,3.23-2.6,3.91-4.64.7-2.1,1.2-4.24-2.21-4.24-2.16,0-4.83,1.01-6.01-1.61-1.41-3.12,2.81-3.51,3.31-5.83,3.58-2.61,7.2-5.16,10.72-7.85,2.63-2.01,5.13-1.84,7.65.05,16.13,12.07,32.03,24.44,47.31,37.57,9.76,8.39,19.17,17.16,29.62,24.76,5.1,3.71,9.83,7.98,15.14,11.44,2.72,1.77,1.7,3.79.45,5.68-2,3.04-4.48,5.77-5.51,9.38Z"/>
      <path class="cls-10" d="M352.94,260.68c1.46,2.78-3.17,3-2.32,5.54,1,1.06,2.08.31,3.1.07,2.27-.54,4.87-2.24,6.5.67,1.48,2.65.97,5.75-.99,7.89-3.72,4.07-7.85,7.88-12.67,10.56-2.64,1.47-5.14,3.03-7.32,5.02-8.65,7.89-17.98,15.23-28.57,19.77-9.11,3.91-16.05,9.73-22.85,16.39-5.7,5.59-9.52,12.22-12.22,19.63-.89-4.81-2.36-9.43-6.21-12.68-1.85-1.56-.65-2,.19-3.25,3.27-4.88,7.62-8.57,12.12-12.22,22.54-18.29,44.99-36.69,67.49-55.02,1.14-.93,2.49-1.59,3.75-2.37Z"/>
      <path class="cls-13" d="M407.89,392.06c2.89-2.22,4.2-5.43,5.46-8.68.46-1.51.92-3.03,1.38-4.54,2.56-1.46,5.38-1.14,8.13-1.1,2.99.05,5.68-.35,8.42-1.98,8.16-4.86,12.99-2.21,13.64,7.22.16,2.39-.08,4.81-.13,7.22-.3-.05-.6-.08-.91-.07-3.55,1.05-6.23,3.78-9.94,4.71-4.89,1.23-9.86,1.79-14.07-.78-4.46-2.72-8.38-2.98-12.75-.57-.69-1-.09-1.28.78-1.42Z"/>
      <path class="cls-10" d="M407.89,392.06c-.26.47-.52.95-.78,1.42-7.34,6.92-15.6,11.72-26.09,11.5-11.52-.24-23.01-.95-34.47-2.25-5.73-.65-10.59-3.16-14.88-6.92-.16-.72-.09-1.68-.53-2.13-6.01-6.19-2.44-11.98.92-17.52,3.2-5.29,1.57-11.23,2.84-16.78,1.13-4.95,1.8-10.12-.47-15.28-.88-2,.41-4.69,1.57-6.84,4.58,6.78,11.39,7.24,18.62,6.71,2.39-.17,4.87-.19,6.96,1.38,1.71,2.75-.66,3.19-2.3,3.72-2.3.74-4.73.57-6.86.23,1.11,3.48,5.61,5.3,4.94,9.87-1.41,1.23-3.09,1.39-4.84,1.24-3.46-.38-6.86-2.51-10.4-.33-4.96,4.62-4.46,10.54-3.07,16.12,1.64,6.6,12.7,9.24,19.49,5.06.78-.48,1.41-1.2,2.21-1.66,2.52-4.64,4.56-9.56,8.14-13.55,1.36-1.51,2.11-4.28,5.11-2.63,2.1,3,1.37,6.45,1.46,9.74.19,7.27,1.31,9.44,5.43,10.03,6.5.93,11.67-2.04,13.78-7.69,1.55-4.15.43-8.51,1.31-12.69,1.05-2.33.47-3.85-1.64-5.56-3.19-2.58-6.83-5.21-6.23-10.26,1.23-2.7,3.12-4.1,6.19-3.09,6.81,4.73,12.22,9.7,9.52,19.6-1.13,4.13,1.25,9.01-1.08,13.57-.78,1.52.98,3.45,2.2,4.9.71.85,2.05,2.15,1.29,2.82-4.16,3.65,1.11,4.89,1.66,7.28Z"/>
      <path class="cls-4" d="M322.65,385.6c-4.33-3.72-8.73-5.03-14.28-2.02-3.19,1.73-7.17,1.93-10.7,3.13-5.7,1.93-11.56,3.7-15.32,9.01.02-6.75.03-13.49.05-20.24.63-11.64,7.69-16.01,18.34-16.37.91-.03,1.83-.32,2.75-.41,11.79-1.17,16.92,3.26,17.56,15.18.05.93.06,1.86.25,2.77.64,2.21.52,4.58,1.38,6.75-.01.73-.02,1.47-.03,2.2Z"/>
      <path class="cls-1" d="M320.47,377.75c-.87-3.59-1.49-7.26-2.68-10.73-1.38-4.05-4.13-6.32-8.85-6.26-5.08.06-9.99,1.1-14.96,1.73-4.41.56-7.47,3.13-8.86,7.53-.62,1.94-1.04,4.02-2.71,5.46,0-7.5-.01-14.99-.02-22.49,1.21-5.83,5.37-8.28,10.53-10.38,7.15-2.92,13.95-1.03,20.84.23,2.25.41,3.9,2.24,4.86,4.37,4.45,9.94,4.38,20.17,1.85,30.55Z"/>
      <path class="cls-8" d="M361.82,345.79c-6.19,1.4-12.47,1.11-18.63.32-4.66-.6-6.93-4.15-7.18-8.86-.01-1.51-.03-3.03-.04-4.54-.28-6.21,2.25-10.9,7.91-13.42,6.27-2.79,11.94-1.04,17.04,3.19,1.28.78,2.66,1.64,2.88,3.19.84,6.04,1.09,12.1-.19,18.11-.2.92-.96,1.55-1.79,2.02Z"/>
      <path class="cls-5" d="M320.47,377.75c.08-9.49,0-18.92-3.06-28.11-1.1-3.31-3.04-4.98-6.24-5.48-11-1.69-21.35-1.23-28.78,8.82-.13-11.65,6.51-19.2,18.73-21.27.91-.15,1.86-.09,2.78-.23,10.95-1.67,17.13,3.97,19.03,15.13,2.11,12.39-.78,24.53-.24,36.78-1.44-1.61-1.68-3.69-2.21-5.65Z"/>
      <path class="cls-1" d="M446.21,368.78c-.05-4.5-.13-9-.13-13.49,0-3.23-1.58-5.8-4.48-6.38-4.52-.92-9.1-2.14-13.84-1.43-8.38,1.25-11.31,4.93-11.91,14.74-.23,3.68.94,7.51-1,11.03-.04-9.76-.09-19.51-.13-29.27,2.58-10.62,6.26-13.49,17.53-13.6,3.16-.03,6.34-.2,9.48.16,5.67.66,9.03,4.71,8.55,10.37-.47,5.54.12,11.21-1.9,16.56-.42,3.82-.72,7.67-2.18,11.3Z"/>
      <path class="cls-5" d="M448.39,357.48c-.02-5.81,0-11.62-.05-17.43-.04-4.79-2.5-7.3-7.27-7.31-5.04,0-10.16-.4-15.09.37-5.92.93-8.41,6.26-11.25,10.85-1.28-5.05-2.79-10.01-2.32-15.38.31-3.59,1.49-5.99,5.08-7.13,11.3-3.6,28.77.85,34.34,14.11,2.74,6.54.65,15.04-3.43,21.91Z"/>
      <path class="cls-12" d="M416.81,122.38c-3.73-1.84-1.51-5.24-2.06-7.92,1.38,2.46,2.3,5.03,2.06,7.92Z"/>
      <path class="cls-10" d="M361.82,345.79c.07-5.8.13-11.59.23-17.39.04-2.07.03-4.11-1.14-5.93,4.53-.78,9.03,1.21,13.56.17,2,1.78,1.3,4.07,1.18,6.26-.18,3.34,0,6.7-.13,10.04-.17,4.18,1.47,6.25,5.83,6.11,2.54-.08,5.28-.32,7.16,2.09,1.7,3.97,5.11,6.49,7.94,9.51,1.42,1.51,3.74,2.98,1.17,5.42-3.15,1.1-6.15-.22-9.17-.7-5.35-.84-10.54-.95-15.47,1.71-2.31,6.17-8.74,9.98-9.62,17.07-.2,1.65-1.18.47-1.52-.44-2.64-2.04-2.15-5-2.14-7.73.02-4.67.09-9.3-2.2-13.57-2.35-1.11-4.59-2.27-5.05-5.26-.5-3.25-4.05-3.23-6.11-5.07,5.22-2.12,10.85,1.42,15.46-2.29Z"/>
      <path class="cls-17" d="M388.53,347.14c-3.33-.04-6.69-.36-9.98-.04-4.05.4-5.7-.84-5.49-5.13.33-6.46-.52-12.99,1.42-19.34,6.14-5.19,10.96-5.81,16.62-2.11,5.42,3.53,7.66,10.4,5.96,17.28-.56,2.26-1.87,4.04-2.75,6.08-1.93,1.08-3.86,2.17-5.79,3.25Z"/>
      <path class="cls-9" d="M357.52,358.41c3.27.28,4.79,1.79,4.58,5.35-.31,5.31-.18,10.64-.24,15.96-.51,3.58-2.44,5.14-6.16,5.36-3.73.23-7.43.51-11.02-.52-5.4-1.56-8.5-5.28-8.39-11.01.1-5.57-2.28-12.31,5.82-14.77,3.21-1.45,6.49-.7,9.76-.35,1.88,0,3.76-.01,5.65-.02Z"/>
      <path class="cls-11" d="M373,363.08c-.05-3.12,1.12-4.82,4.6-4.55,6.8.53,13.87-.59,20.04,3.53.15,6.43,1.5,13-3.1,18.71-2.97,3.68-13.89,6.52-17.9,4.34-2.29-1.25-2.68-3.59-2.85-5.79-.41-5.4-.54-10.83-.79-16.24Z"/>
      <ellipse class="cls-18" cx="530.63" cy="266.76" rx="34.51" ry="28.84"/>
      <path class="cls-10" d="M488.66,361.94c-1.7,35.41-1.7,53.89-1.18,64.12.04.75.07,1.49.11,2.24,1.16,22.69,2.85,34.06.14,34.89-.92.28-1.38-.95-3.22-.95-3.55,0-4.89,4.55-6.37,4.62-6.75.33-4.59-93.23-2.93-115.38.15-1.99.69-6.97,3.77-8.73,2.23-1.28,5.45-.8,9.7,1.31,2.18,1.08,4.33,2.13,6.75,2.59,3.58.68,6.21-.44,7.87-3.73,1.68-3.33-1-4.86-2.91-6.4-20.08-16.09-40.32-31.98-60.32-48.17-20.01-16.19-40.75-31.48-59.66-49.02-2.85-2.64-6.21-4.53-9.61-6.34.49-.19,1-.48,1.04-.88.12-1.08-3.24-1.72-3.26-2.93-.01-1.26,3.63-2.25,4.48-2.49,2.87-.79,4.22-.44,7.21-1,2.04-.38,3.72-.96,4.98-1.49,1.02-.02,2.13.05,3.3.29,6.25,1.25,9.96,6.17,11.27,8.11,4.8,4.21,9.67,8.43,14.6,12.66,2.47,2.12,4.94,4.22,7.41,6.31,4.68,3.41,9.41,6.98,14.18,10.7,11.13,8.68,21.42,17.4,30.91,25.99,3.98,2.44,8.1,5.22,12.28,8.4,1.36,1.04,2.68,2.07,3.95,3.11,5.6,4.16,10.47,9.25,16.4,13.01,5.88,4.27,11.63,8.71,16.4,14.25,4.32,5.02,8.05,10.49,8.28,17.32.23,6.79-2.72,12.62-8.54,16.03-8.57,5.02-17.75,5.87-27.03,1.55Z"/>
      <ellipse class="cls-2" cx="565.27" cy="389.98" rx="13.16" ry="15"/>
    </g>
    <path class="cls-14" d="M215.14,75.1s-22.34,70.32,152.36,132.69c0,0,105.05-15.26,174.71-111.46.68-.94-24.33-19.47-25.8-20.52-19.99-14.33-41.51-26.84-64.44-35.82-57.31-22.43-126.04-12.7-182.24,8.54-18.75,7.09-37.8,15.48-54.59,26.57Z"/>
    <path class="cls-2" d="M389.62,225.03c4.62,3.48,36.53-14.74,40.57-16.75,37.69-18.78,72.15-43.21,104.62-69.88,9.02-7.41,24.57-19.23,33.92-8.52,4.92,5.63,9.3,11.8,13.45,18.01,14.62,21.92,25.69,46.26,32.93,71.58,8.97,31.38,11.59,64.37,8.56,96.83-3.41,36.53-8.51,70.97-35.34,97.95-26.17,26.32-61.29,41.83-98.28,44.29l-.25.02s-.66-98.19-.66-98.19c0,0,35.83,5.97,30.52-23.22-17.25-27.2-130.03-112.12-130.03-112.12Z"/>
    <path class="cls-6" d="M196.67,97.65s-3.32,72.31,152.59,124.73c-7.29,6.04-14.58,12.08-21.87,18.12-15.53,12.87-31.06,25.75-46.59,38.62l-42.91,35.57c-3.57,2.96-7.18,5.86-10.75,8.83-4.83,4.01-6.91,13.29-6.24,19.38.97,8.83,8.59,12.99,16.68,14.25,2.7.42,5.45.57,8.18.57,0,0,3.32,25.87,3.32,25.87-.11-1.01-1.71-2.07-2.41-2.68-1.16-1.02-2.14-2.06-3.17-3.25-2.39-2.76-4.86-5.46-7.35-8.13-4.99-5.34-10.11-10.56-15.03-15.98-6.33-6.97-12.35-14.29-17.18-22.39-5.17-8.67-8.54-18.37-12.43-27.66-8.49-20.27-15.22-41.34-19.44-62.92-4.93-25.21-6.41-51.33-2.25-76.76,1.89-11.52,4.94-22.84,9.23-33.7,2.23-5.63,4.79-11.13,7.66-16.46,1.51-2.8,3.11-5.56,4.8-8.26,1.07-1.72,5.08-5.85,5.16-7.75Z"/>
    <path class="cls-2" d="M159.3,136.91s-132.91,207.88,54.91,354.72c195.64,125.83,341.16-26.32,341.16-26.32,0,0-126.61,60.93-280.85-37.59-183.11-129.37-115.22-290.8-115.22-290.8Z"/>
    <circle class="cls-10" cx="370.06" cy="132.69" r="65.16"/>
    <circle class="cls-14" cx="369.61" cy="132.69" r="49.52"/>
    <g>
      <path class="cls-7" d="M418.58,139.63c-2.5,17.9-11.15,31.73-28.02,38.73-16.81,6.98-33.43,5.84-48.74-4.99-.6-12,5.08-21.05,15.96-24.95,8.86-3.18,16.46-8.47,23.64-14.27,7.61-6.14,16.02-9,25.68-8.61,7.58.3,9.13,1.37,11.84,8.48-.02,1.88.43,3.78-.36,5.61Z"/>
      <path class="cls-12" d="M418.37,133.65c-8.1-8.12-24.06-7.49-33.87.9-8.58,7.34-17.66,14.02-28.92,16.89-8.16,2.08-9.05,9.55-11.02,15.91-.69,2.21-.9,4.42-2.74,6.03-9.78-6.44-15.05-15.97-18.31-26.87-1.29-7.89-.79-9.21,6.6-11.09,12.89-3.28,25.17-7.89,36.98-14.07,5.23-2.74,11.18-4.16,17.26-3.94,6.23.22,12.14-.9,18.04-2.99,4.39-1.55,9.07-3.62,13.77-.51h0c1.09,2.62.19,5.77,2.12,8.17.09.68.19,1.36.28,2.04.64,3.19.93,6.38-.2,9.54Z"/>
      <path class="cls-3" d="M416.17,113.91c-5.64,1.06-11.39,1.51-16.69,4.12-2.01.99-4.49,1.73-6.68,1.56-12.32-.96-23.67,2.18-34.03,8.44-8.93,5.4-19,6.93-28.67,9.74-4.82,1.4-7.46,3.49-6.58,8.75-3.16-5.92-2.37-12.3-2.19-18.62,6.6-6.83,15.05-10.43,23.78-13.42,2.57-.88,5.15-1.66,7.23-3.4,9.54-7.95,20.58-12.57,32.61-15.11,1.82-.38,4.04-.32,4.8-2.59,1.47-4.42,4.58-3.81,7.89-2.75,9.54,5.07,16.13,12.49,18.52,23.27Z"/>
      <path class="cls-14" d="M397.64,90.63c-2.61.86-7.23-.51-5.38,5.2.47,1.45-1.14,1.74-2.31,1.82-9.97.7-19.78,3.38-27.43,9.35-9.14,7.13-20.2,9.7-29.77,15.49-3.6,2.18-7.28,4.31-11.42,5.41-.46-23.01,21.85-46.08,44.63-46.59,11.67-.26,22.53,1.42,31.69,9.34Z"/>
    </g>
  </g>
  <g>
    <path class="cls-2" d="M187.13,634.56v-51.9h12.71v19.46h13.93v-19.46h12.71v51.9h-12.71v-22.32h-13.93v22.32h-12.71Z"/>
    <path class="cls-2" d="M290.45,628.55c-4.07,4.64-9.39,6.96-15.96,6.96s-11.89-2.32-15.96-6.96c-4.06-4.64-6.1-11.29-6.1-19.94s2.03-15.3,6.1-19.94c4.06-4.64,9.39-6.96,15.96-6.96s11.89,2.32,15.96,6.96c4.06,4.64,6.1,11.29,6.1,19.94s-2.03,15.3-6.1,19.94ZM267.87,621.71c1.35,2.68,3.56,4.02,6.62,4.02s5.26-1.34,6.62-4.02c1.35-2.68,2.03-7.05,2.03-13.1s-.68-10.42-2.03-13.1c-1.35-2.68-3.56-4.02-6.62-4.02s-5.26,1.34-6.62,4.02c-1.36,2.68-2.03,7.05-2.03,13.1s.68,10.42,2.03,13.1Z"/>
    <path class="cls-2" d="M360.38,630.75c-1.73,1.1-4.22,2.15-7.48,3.16-3.26,1.01-6.76,1.51-10.51,1.51-6.57,0-11.85-2.33-15.83-7.01-3.98-4.67-5.97-11.27-5.97-19.81s2.13-15.04,6.4-19.68c4.27-4.64,9.77-6.96,16.52-6.96,6.11,0,11.16,1.36,15.14,4.07v10.55c-4.33-2.88-8.53-4.32-12.63-4.32-8.01,0-12.02,5.57-12.02,16.69,0,5.48.79,9.63,2.38,12.45,1.58,2.83,4.16,4.24,7.74,4.24,1.79,0,3.14-.29,4.06-.86v-9.17h-4.84v-8.48h17.04v23.61Z"/>
    <path class="cls-2" d="M388.31,634.56v-51.9h29.23v9.6h-16.52v10.81h13.06v9.6h-13.06v12.28h16.52v9.6h-29.23Z"/>
    <path class="cls-2" d="M472.12,612.68l11.76,21.88h-14.44l-9.08-19.72h-3.55v19.72h-12.71v-51.9h19.98c5.13,0,9.11,1.54,11.94,4.63,2.82,3.09,4.24,6.91,4.24,11.46,0,3.4-.75,6.34-2.25,8.82-1.5,2.48-3.46,4.18-5.88,5.1ZM467.97,598.84c0-5.25-2.54-7.87-7.61-7.87h-3.55v15.83h3.55c5.07,0,7.61-2.65,7.61-7.96Z"/>
    <path class="cls-2" d="M543.78,628.55c-4.07,4.64-9.39,6.96-15.96,6.96s-11.89-2.32-15.96-6.96c-4.06-4.64-6.1-11.29-6.1-19.94s2.03-15.3,6.1-19.94c4.06-4.64,9.39-6.96,15.96-6.96s11.89,2.32,15.96,6.96c4.06,4.64,6.1,11.29,6.1,19.94s-2.03,15.3-6.1,19.94ZM521.21,621.71c1.35,2.68,3.56,4.02,6.62,4.02s5.26-1.34,6.62-4.02c1.35-2.68,2.03-7.05,2.03-13.1s-.68-10.42-2.03-13.1c-1.35-2.68-3.56-4.02-6.62-4.02s-5.26,1.34-6.62,4.02c-1.36,2.68-2.03,7.05-2.03,13.1s.68,10.42,2.03,13.1Z"/>
  </g>
  <g>
    <path class="cls-2" d="M86.63,691.13c-2.52,2.03-5.91,3.05-10.16,3.05s-7.35-1.51-9.85-4.54-3.75-7.31-3.75-12.84,1.27-9.76,3.81-12.79,5.86-4.55,9.97-4.55c3.69,0,6.62.77,8.81,2.32v2.94c-2.45-1.69-5.19-2.54-8.24-2.54-3.46,0-6.18,1.28-8.16,3.84-1.98,2.56-2.96,6.19-2.96,10.9s.95,8.21,2.85,10.76,4.53,3.81,7.88,3.81c2.94,0,5.17-.6,6.72-1.81v-9.49h-5.14v-2.6h8.24v13.55Z"/>
    <path class="cls-2" d="M94.14,680.68v.62c-.11,6.96,2.45,10.45,7.68,10.45,2.41,0,4.46-.9,6.15-2.71v2.77c-1.66,1.66-4.01,2.48-7.06,2.48s-5.43-1.11-7.14-3.33c-1.71-2.22-2.57-5.42-2.57-9.6,0-3.91.87-6.99,2.6-9.23,1.73-2.24,3.93-3.36,6.61-3.36,2.45,0,4.36.85,5.73,2.54,1.37,1.69,2.06,4.05,2.06,7.06,0,.79-.09,1.56-.28,2.31h-13.78ZM105.43,678.42c.11-2.26-.25-4.04-1.1-5.34s-2.14-1.95-3.87-1.95c-3.31,0-5.36,2.43-6.15,7.28h11.12Z"/>
    <path class="cls-2" d="M123.05,671.99c-1.81-.26-3.41.15-4.8,1.24s-2.16,2.48-2.31,4.18v16.32h-2.99v-24.39h2.6l.17,3.95c.6-1.39,1.58-2.48,2.94-3.28s2.82-1.2,4.4-1.24v3.22Z"/>
    <path class="cls-2" d="M144.5,681.53c0,3.95-.9,7.07-2.71,9.35s-4.2,3.42-7.17,3.42-5.36-1.14-7.17-3.42-2.71-5.39-2.71-9.35.91-7.02,2.74-9.32c1.83-2.29,4.21-3.44,7.14-3.44s5.32,1.15,7.14,3.44c1.83,2.3,2.74,5.4,2.74,9.32ZM141.51,681.53c0-3.27-.61-5.8-1.83-7.57-1.22-1.77-2.91-2.65-5.05-2.65s-3.88.88-5.08,2.63-1.81,4.28-1.81,7.59.6,5.84,1.81,7.59,2.9,2.63,5.08,2.63,3.83-.88,5.05-2.63,1.83-4.28,1.83-7.59Z"/>
    <path class="cls-2" d="M166.01,693.72h-2.99v-16.49c0-2.18-.39-3.7-1.16-4.55-.77-.85-1.95-1.27-3.53-1.27s-2.92.59-4.24,1.78c-1.32,1.19-2.07,2.55-2.26,4.09v16.43h-2.99v-24.39h2.6l.17,4.01c.68-1.35,1.74-2.46,3.19-3.3,1.45-.85,2.93-1.27,4.43-1.27,4.52,0,6.77,2.71,6.77,8.13v16.83Z"/>
    <path class="cls-2" d="M180.52,671.7h-4.01v22.02h-2.99v-22.02h-3.95v-2.37h3.95v-6.66h2.99v6.66h4.01v2.37Z"/>
    <path class="cls-2" d="M202.65,681.53c0,3.95-.9,7.07-2.71,9.35s-4.2,3.42-7.17,3.42-5.36-1.14-7.17-3.42-2.71-5.39-2.71-9.35.91-7.02,2.74-9.32c1.83-2.29,4.21-3.44,7.14-3.44s5.32,1.15,7.14,3.44c1.83,2.3,2.74,5.4,2.74,9.32ZM199.66,681.53c0-3.27-.61-5.8-1.83-7.57-1.22-1.77-2.91-2.65-5.05-2.65s-3.88.88-5.08,2.63-1.81,4.28-1.81,7.59.6,5.84,1.81,7.59,2.9,2.63,5.08,2.63,3.83-.88,5.05-2.63,1.83-4.28,1.83-7.59Z"/>
    <path class="cls-2" d="M207,693.72v-33.88h2.99v33.88h-2.99Z"/>
    <path class="cls-2" d="M234.1,681.53c0,3.95-.9,7.07-2.71,9.35s-4.2,3.42-7.17,3.42-5.36-1.14-7.17-3.42-2.71-5.39-2.71-9.35.91-7.02,2.74-9.32c1.83-2.29,4.21-3.44,7.14-3.44s5.32,1.15,7.14,3.44c1.83,2.3,2.74,5.4,2.74,9.32ZM231.11,681.53c0-3.27-.61-5.8-1.83-7.57-1.22-1.77-2.91-2.65-5.05-2.65s-3.88.88-5.08,2.63-1.81,4.28-1.81,7.59.6,5.84,1.81,7.59,2.9,2.63,5.08,2.63,3.83-.88,5.05-2.63,1.83-4.28,1.83-7.59Z"/>
    <path class="cls-2" d="M256.23,692.42c0,8.43-3.26,12.65-9.77,12.65-3.05,0-5.57-.75-7.57-2.26v-2.88c2.18,1.73,4.71,2.6,7.57,2.6,1.99,0,3.62-.7,4.88-2.09,1.26-1.39,1.89-3.73,1.89-7v-3.61c-.56,1.35-1.47,2.44-2.71,3.25-1.24.81-2.65,1.21-4.24,1.21-2.75,0-4.93-1.16-6.55-3.47-1.62-2.31-2.43-5.41-2.43-9.29s.81-6.97,2.43-9.29c1.62-2.31,3.8-3.47,6.55-3.47,1.69,0,3.17.44,4.43,1.33,1.26.89,2.21,2.1,2.85,3.64l.06-4.4h2.6v23.09ZM251.69,689.15c1.19-1.77,1.78-4.31,1.78-7.62s-.59-5.85-1.78-7.62c-1.18-1.77-2.78-2.65-4.77-2.65s-3.63.88-4.8,2.63c-1.17,1.75-1.75,4.3-1.75,7.65s.58,5.9,1.75,7.65c1.17,1.75,2.77,2.63,4.8,2.63s3.59-.88,4.77-2.65Z"/>
    <path class="cls-2" d="M264.87,663.69h-2.99v-3.84h2.99v3.84ZM264.87,693.72h-2.99v-24.39h2.99v24.39Z"/>
    <path class="cls-2" d="M288.3,693.72h-2.6l-.06-4.4c-.64,1.54-1.59,2.76-2.85,3.64-1.26.88-2.74,1.33-4.43,1.33-2.75,0-4.93-1.16-6.55-3.47-1.62-2.31-2.43-5.41-2.43-9.29s.81-6.97,2.43-9.29c1.62-2.31,3.8-3.47,6.55-3.47,1.69,0,3.17.44,4.43,1.33,1.26.89,2.21,2.1,2.85,3.64l.06-4.4h2.6v24.39ZM283.76,689.15c1.19-1.77,1.78-4.31,1.78-7.62s-.59-5.85-1.78-7.62c-1.18-1.77-2.78-2.65-4.77-2.65s-3.63.88-4.8,2.63c-1.17,1.75-1.75,4.3-1.75,7.65s.58,5.9,1.75,7.65c1.17,1.75,2.77,2.63,4.8,2.63s3.59-.88,4.77-2.65Z"/>
    <path class="cls-2" d="M320.15,693.72h-2.6l-.06-4.4c-.64,1.54-1.59,2.76-2.85,3.64-1.26.88-2.74,1.33-4.43,1.33-2.75,0-4.93-1.16-6.55-3.47-1.62-2.31-2.43-5.41-2.43-9.29s.81-6.97,2.43-9.29c1.62-2.31,3.8-3.47,6.55-3.47,1.69,0,3.17.44,4.43,1.33,1.26.89,2.21,2.1,2.85,3.64l.06-4.4h2.6v24.39ZM315.6,689.15c1.19-1.77,1.78-4.31,1.78-7.62s-.59-5.85-1.78-7.62c-1.18-1.77-2.78-2.65-4.77-2.65s-3.63.88-4.8,2.63c-1.17,1.75-1.75,4.3-1.75,7.65s.58,5.9,1.75,7.65c1.17,1.75,2.77,2.63,4.8,2.63s3.59-.88,4.77-2.65Z"/>
    <path class="cls-2" d="M334.2,693.72v-33.88h2.99v33.88h-2.99Z"/>
    <path class="cls-2" d="M360.63,693.72h-2.6l-.06-4.4c-.64,1.54-1.59,2.76-2.85,3.64-1.26.88-2.74,1.33-4.43,1.33-2.75,0-4.93-1.16-6.55-3.47-1.62-2.31-2.43-5.41-2.43-9.29s.81-6.97,2.43-9.29c1.62-2.31,3.8-3.47,6.55-3.47,1.69,0,3.17.44,4.43,1.33,1.26.89,2.21,2.1,2.85,3.64l.06-4.4h2.6v24.39ZM356.08,689.15c1.19-1.77,1.78-4.31,1.78-7.62s-.59-5.85-1.78-7.62c-1.18-1.77-2.78-2.65-4.77-2.65s-3.63.88-4.8,2.63c-1.17,1.75-1.75,4.3-1.75,7.65s.58,5.9,1.75,7.65c1.17,1.75,2.77,2.63,4.8,2.63s3.59-.88,4.77-2.65Z"/>
    <path class="cls-2" d="M374.69,669.33h2.6l.06,4.4c.64-1.54,1.59-2.76,2.85-3.64,1.26-.88,2.74-1.33,4.43-1.33,2.75,0,4.93,1.16,6.55,3.47,1.62,2.32,2.43,5.41,2.43,9.29s-.81,6.97-2.43,9.29c-1.62,2.32-3.8,3.47-6.55,3.47-1.62,0-3.03-.4-4.24-1.21-1.2-.81-2.11-1.89-2.71-3.25v14.91h-2.99v-35.4ZM379.23,673.9c-1.19,1.77-1.78,4.31-1.78,7.62s.59,5.85,1.78,7.62c1.18,1.77,2.77,2.65,4.77,2.65s3.63-.88,4.8-2.63c1.17-1.75,1.75-4.3,1.75-7.65s-.58-5.9-1.75-7.65c-1.17-1.75-2.77-2.63-4.8-2.63s-3.59.88-4.77,2.65Z"/>
    <path class="cls-2" d="M398,669.33h2.99v16.49c0,2.18.39,3.7,1.16,4.54.77.85,1.95,1.27,3.53,1.27s2.92-.59,4.23-1.78c1.32-1.18,2.07-2.55,2.26-4.09v-16.43h2.99v24.39h-2.6l-.17-4.01c-.68,1.35-1.74,2.46-3.19,3.3-1.45.85-2.93,1.27-4.43,1.27-4.52,0-6.78-2.71-6.78-8.13v-16.83Z"/>
    <path class="cls-2" d="M422.62,680.68v.62c-.11,6.96,2.45,10.45,7.68,10.45,2.41,0,4.46-.9,6.15-2.71v2.77c-1.66,1.66-4.01,2.48-7.06,2.48s-5.43-1.11-7.14-3.33c-1.71-2.22-2.57-5.42-2.57-9.6,0-3.91.87-6.99,2.6-9.23,1.73-2.24,3.93-3.36,6.61-3.36,2.45,0,4.36.85,5.73,2.54,1.37,1.69,2.06,4.05,2.06,7.06,0,.79-.09,1.56-.28,2.31h-13.78ZM433.91,678.42c.11-2.26-.25-4.04-1.1-5.34s-2.14-1.95-3.87-1.95c-3.31,0-5.36,2.43-6.15,7.28h11.12Z"/>
    <path class="cls-2" d="M451.53,671.99c-1.81-.26-3.41.15-4.8,1.24s-2.16,2.48-2.31,4.18v16.32h-2.99v-24.39h2.6l.17,3.95c.6-1.39,1.58-2.48,2.94-3.28s2.82-1.2,4.4-1.24v3.22Z"/>
    <path class="cls-2" d="M464.85,671.7h-4.01v22.02h-2.99v-22.02h-3.95v-2.37h3.95v-6.66h2.99v6.66h4.01v2.37Z"/>
    <path class="cls-2" d="M486.31,693.72h-2.6l-.06-4.4c-.64,1.54-1.59,2.76-2.85,3.64-1.26.88-2.74,1.33-4.43,1.33-2.75,0-4.93-1.16-6.55-3.47-1.62-2.31-2.43-5.41-2.43-9.29s.81-6.97,2.43-9.29c1.62-2.31,3.8-3.47,6.55-3.47,1.69,0,3.17.44,4.43,1.33,1.26.89,2.21,2.1,2.85,3.64l.06-4.4h2.6v24.39ZM481.76,689.15c1.19-1.77,1.78-4.31,1.78-7.62s-.59-5.85-1.78-7.62c-1.18-1.77-2.78-2.65-4.77-2.65s-3.63.88-4.8,2.63c-1.17,1.75-1.75,4.3-1.75,7.65s.58,5.9,1.75,7.65c1.17,1.75,2.77,2.63,4.8,2.63s3.59-.88,4.77-2.65Z"/>
    <path class="cls-2" d="M518.15,693.72h-2.6l-.06-4.4c-.64,1.54-1.59,2.76-2.85,3.64-1.26.88-2.74,1.33-4.43,1.33-2.75,0-4.93-1.16-6.55-3.47-1.62-2.31-2.43-5.41-2.43-9.29s.81-6.97,2.43-9.29c1.62-2.31,3.8-3.47,6.55-3.47,1.62,0,3.03.41,4.24,1.21,1.2.81,2.11,1.89,2.71,3.25v-13.38h2.99v33.88ZM513.6,689.15c1.19-1.77,1.78-4.31,1.78-7.62s-.59-5.85-1.78-7.62c-1.18-1.77-2.78-2.65-4.77-2.65s-3.63.88-4.8,2.63c-1.17,1.75-1.75,4.3-1.75,7.65s.58,5.9,1.75,7.65c1.17,1.75,2.77,2.63,4.8,2.63s3.59-.88,4.77-2.65Z"/>
    <path class="cls-2" d="M525.6,680.68v.62c-.11,6.96,2.45,10.45,7.68,10.45,2.41,0,4.46-.9,6.15-2.71v2.77c-1.66,1.66-4.01,2.48-7.06,2.48s-5.43-1.11-7.14-3.33c-1.71-2.22-2.57-5.42-2.57-9.6,0-3.91.87-6.99,2.6-9.23,1.73-2.24,3.93-3.36,6.61-3.36,2.45,0,4.36.85,5.73,2.54,1.37,1.69,2.06,4.05,2.06,7.06,0,.79-.09,1.56-.28,2.31h-13.78ZM536.9,678.42c.11-2.26-.25-4.04-1.1-5.34s-2.14-1.95-3.87-1.95c-3.31,0-5.36,2.43-6.15,7.28h11.12Z"/>
    <path class="cls-2" d="M561.79,671.7h-4.01v22.02h-2.99v-22.02h-3.95v-2.37h3.95v-6.66h2.99v6.66h4.01v2.37Z"/>
    <path class="cls-2" d="M565.35,669.33h2.99v16.49c0,2.18.39,3.7,1.16,4.54.77.85,1.95,1.27,3.53,1.27s2.92-.59,4.23-1.78c1.32-1.18,2.07-2.55,2.26-4.09v-16.43h2.99v24.39h-2.6l-.17-4.01c-.68,1.35-1.74,2.46-3.19,3.3-1.45.85-2.93,1.27-4.43,1.27-4.52,0-6.78-2.71-6.78-8.13v-16.83Z"/>
    <path class="cls-2" d="M610.8,692.26c-1.47,1.24-3.35,1.86-5.65,1.86-2.97,0-5.34-1.1-7.09-3.3s-2.63-5.3-2.63-9.29.88-6.99,2.65-9.23c1.77-2.24,4.12-3.36,7.06-3.36,2.26,0,4.14.64,5.65,1.92v2.71c-1.69-1.39-3.41-2.09-5.14-2.09-2.26,0-4.03.86-5.31,2.57-1.28,1.71-1.92,4.21-1.92,7.48s.65,5.67,1.95,7.42,3.06,2.63,5.28,2.63c1.84,0,3.56-.68,5.14-2.03v2.71Z"/>
    <path class="cls-2" d="M633.04,693.72h-2.6l-.06-4.4c-.64,1.54-1.59,2.76-2.85,3.64-1.26.88-2.74,1.33-4.43,1.33-2.75,0-4.93-1.16-6.55-3.47-1.62-2.31-2.43-5.41-2.43-9.29s.81-6.97,2.43-9.29c1.62-2.31,3.8-3.47,6.55-3.47,1.69,0,3.17.44,4.43,1.33,1.26.89,2.21,2.1,2.85,3.64l.06-4.4h2.6v24.39ZM628.5,689.15c1.19-1.77,1.78-4.31,1.78-7.62s-.59-5.85-1.78-7.62c-1.18-1.77-2.78-2.65-4.77-2.65s-3.63.88-4.8,2.63c-1.17,1.75-1.75,4.3-1.75,7.65s.58,5.9,1.75,7.65c1.17,1.75,2.77,2.63,4.8,2.63s3.59-.88,4.77-2.65Z"/>
    <path class="cls-2" d="M652.07,686.95c0,2.33-.71,4.14-2.12,5.42-1.41,1.28-3.27,1.92-5.56,1.92-2.56,0-4.91-.71-7.06-2.15l.51-2.48c2.07,1.43,4.25,2.15,6.55,2.15,1.51,0,2.67-.39,3.5-1.16.83-.77,1.24-1.87,1.24-3.3,0-1.2-.4-2.17-1.21-2.91s-2.1-1.4-3.87-2c-4.1-1.39-6.15-3.78-6.15-7.17,0-1.84.64-3.38,1.92-4.6,1.28-1.22,3.05-1.83,5.31-1.83s4.14.55,5.87,1.64l-.56,2.32c-1.47-1.02-3.22-1.53-5.25-1.53-1.47,0-2.57.36-3.3,1.07-.73.72-1.1,1.66-1.1,2.82,0,2.18,1.45,3.75,4.35,4.69,4.63,1.58,6.95,3.95,6.95,7.11Z"/>
    <path class="cls-2" d="M674.15,693.72h-2.6l-.06-4.4c-.64,1.54-1.59,2.76-2.85,3.64-1.26.88-2.74,1.33-4.43,1.33-2.75,0-4.93-1.16-6.55-3.47-1.62-2.31-2.43-5.41-2.43-9.29s.81-6.97,2.43-9.29c1.62-2.31,3.8-3.47,6.55-3.47,1.69,0,3.17.44,4.43,1.33,1.26.89,2.21,2.1,2.85,3.64l.06-4.4h2.6v24.39ZM669.6,689.15c1.19-1.77,1.78-4.31,1.78-7.62s-.59-5.85-1.78-7.62c-1.18-1.77-2.78-2.65-4.77-2.65s-3.63.88-4.8,2.63c-1.17,1.75-1.75,4.3-1.75,7.65s.58,5.9,1.75,7.65c1.17,1.75,2.77,2.63,4.8,2.63s3.59-.88,4.77-2.65Z"/>
  </g>
</svg>